<svg width="239" height="30" viewBox="0 0 239 30" fill="none" xmlns="http://www.w3.org/2000/svg">
<path d="M0.95459 29.9311H5.99867V11.4773L28.4088 29.9397V0.599592H23.1731V18.4442L0.95459 0.589281V29.9311Z" fill="#653F2C"/>
<path d="M109.835 29.9311H114.879V11.4773L137.633 29.9397V0.599592H132.054V18.4442L109.835 0.589281V29.9311Z" fill="#653F2C"/>
<path d="M36.9138 19.9303C37.639 21.3161 38.6433 22.4003 39.9269 23.1856C41.2113 23.97 42.6736 24.3626 44.3137 24.3626C45.9779 24.3626 47.4453 23.97 48.7177 23.1856C49.9893 22.4003 50.9885 21.3161 51.7145 19.9303C52.4387 18.5453 52.8013 16.9696 52.8013 15.2041C52.8013 13.4385 52.4447 11.8628 51.7316 10.4779C51.0185 9.09206 50.0254 8.00695 48.7538 7.22255C47.4814 6.43728 46.002 6.04551 44.3137 6.04551C42.6736 6.04551 41.2113 6.43728 39.9269 7.22255C38.6433 8.00695 37.639 9.09206 36.9138 10.4779C36.1879 11.8628 35.8253 13.4385 35.8253 15.2041C35.8253 16.9696 36.1879 18.5453 36.9138 19.9303ZM31.1652 9.35153C31.8689 7.57566 32.8672 6.03606 34.1585 4.73014C35.4498 3.42595 36.9628 2.40957 38.6983 1.68359C40.4329 0.956743 42.3042 0.593325 44.3137 0.593325C46.374 0.593325 48.2658 0.956743 49.9884 1.68359C51.7093 2.40957 53.2163 3.42595 54.5076 4.73014C55.7989 6.03606 56.7972 7.57566 57.5017 9.35153C58.2054 11.1274 58.5576 13.0785 58.5576 15.2041C58.5576 17.3021 58.2054 19.2533 57.5017 21.0558C56.7972 22.8591 55.8057 24.4193 54.5273 25.7373C53.2489 27.0561 51.7428 28.0853 50.0073 28.8251C48.2718 29.5648 46.374 29.9351 44.3137 29.9351C42.2792 29.9351 40.3865 29.5648 38.6399 28.8251C36.8915 28.0853 35.3845 27.0561 34.1199 25.7373C32.8535 24.4193 31.8689 22.8591 31.1652 21.0558C30.4607 19.2533 30.1085 17.3021 30.1085 15.2041C30.1085 13.0785 30.4607 11.1274 31.1652 9.35153Z" fill="#653F2C"/>
<path d="M216.904 19.9303C217.629 21.3161 218.633 22.4003 219.918 23.1856C221.201 23.97 222.663 24.3626 224.304 24.3626C225.968 24.3626 227.436 23.97 228.708 23.1856C229.979 22.4003 230.979 21.3161 231.705 19.9303C232.429 18.5453 232.791 16.9696 232.791 15.2041C232.791 13.4385 232.435 11.8628 231.722 10.4779C231.008 9.09206 230.015 8.00695 228.743 7.22255C227.471 6.43728 225.991 6.04551 224.304 6.04551C222.663 6.04551 221.201 6.43728 219.918 7.22255C218.633 8.00695 217.629 9.09206 216.904 10.4779C216.178 11.8628 215.815 13.4385 215.815 15.2041C215.815 16.9696 216.178 18.5453 216.904 19.9303ZM211.155 9.35153C211.86 7.57566 212.857 6.03606 214.149 4.73014C215.44 3.42595 216.953 2.40957 218.688 1.68359C220.423 0.956743 222.294 0.593325 224.304 0.593325C226.364 0.593325 228.256 0.956743 229.979 1.68359C231.699 2.40957 233.206 3.42595 234.498 4.73014C235.789 6.03606 236.787 7.57566 237.492 9.35153C238.195 11.1274 238.548 13.0785 238.548 15.2041C238.548 17.3021 238.195 19.2533 237.492 21.0558C236.787 22.8591 235.795 24.4193 234.517 25.7373C233.239 27.0561 231.733 28.0853 229.997 28.8251C228.263 29.5648 226.364 29.9351 224.304 29.9351C222.268 29.9351 220.377 29.5648 218.63 28.8251C216.882 28.0853 215.375 27.0561 214.11 25.7373C212.844 24.4193 211.86 22.8591 211.155 21.0558C210.451 19.2533 210.099 17.3021 210.099 15.2041C210.099 13.0785 210.451 11.1274 211.155 9.35153Z" fill="#653F2C"/>
<path d="M59.2963 29.853H108.558V0.593699H59.2963V29.853Z" fill="#EB5F29"/>
<path d="M81.7438 0.599809H87.0551L73.6996 29.8574L60.3432 0.599809H65.6545L73.6996 18.9539L81.7438 0.599809Z" fill="white"/>
<path d="M101.709 29.8571H107.021L93.6652 0.59955L80.3088 29.8571H85.6201L93.6652 11.5031L101.709 29.8571Z" fill="white"/>
<path d="M140.125 0.557442H169.228V5.81116H157.141V29.9233H152.127V5.81116H140.125V0.557442Z" fill="#653F2C"/>
<path d="M177.767 29.8487H171.983V0.514647H177.767V29.8487Z" fill="#653F2C"/>
<path d="M208.781 0.599796H195.819C187.562 0.599796 180.869 7.18176 180.869 15.2999C180.869 23.4189 187.562 30 195.819 30H208.781V12.5807L193.36 12.6657V19.5063H203.556V24.2712H194.879C190.092 24.2712 186.211 20.3904 186.211 15.6032V14.7646C186.211 9.97745 190.092 6.09665 194.879 6.09665H208.814L208.781 0.599796Z" fill="#653F2C"/>
</svg>
