<svg width="108" height="20" viewBox="0 0 108 20" fill="none" xmlns="http://www.w3.org/2000/svg">
<path d="M10.0001 14.3917L15.1501 17.5001L13.7834 11.6417L18.3334 7.70008L12.3417 7.19175L10.0001 1.66675L7.65841 7.19175L1.66675 7.70008L6.21675 11.6417L4.85008 17.5001L10.0001 14.3917Z" fill="#FFAE00"/>
<path d="M32.0001 14.3917L37.1501 17.5001L35.7834 11.6417L40.3334 7.70008L34.3417 7.19175L32.0001 1.66675L29.6584 7.19175L23.6667 7.70008L28.2167 11.6417L26.8501 17.5001L32.0001 14.3917Z" fill="#FFAE00"/>
<path d="M54.0001 14.3917L59.1501 17.5001L57.7834 11.6417L62.3334 7.70008L56.3417 7.19175L54.0001 1.66675L51.6584 7.19175L45.6667 7.70008L50.2167 11.6417L48.8501 17.5001L54.0001 14.3917Z" fill="#FFAE00"/>
<path d="M76.0001 14.3917L81.1501 17.5001L79.7834 11.6417L84.3334 7.70008L78.3417 7.19175L76.0001 1.66675L73.6584 7.19175L67.6667 7.70008L72.2167 11.6417L70.8501 17.5001L76.0001 14.3917Z" fill="#FFAE00"/>
<path d="M98.0001 14.3917L103.15 17.5001L101.783 11.6417L106.333 7.70008L100.342 7.19175L98.0001 1.66675L95.6584 7.19175L89.6667 7.70008L94.2167 11.6417L92.8501 17.5001L98.0001 14.3917Z" fill="#FFAE00"/>
</svg>
